<svg xmlns="http://www.w3.org/2000/svg" xmlns:xlink="http://www.w3.org/1999/xlink" width="2000" zoomAndPan="magnify" viewBox="0 0 1500 1499.999933" height="2000" preserveAspectRatio="xMidYMid meet" version="1.0"><defs><g/><clipPath id="4b176b55b3"><rect x="0" width="529" y="0" height="1084"/></clipPath></defs><rect x="-150" width="1800" fill="#ffffff" y="-149.999993" height="1799.99992" fill-opacity="1"/><rect x="-150" width="1800" fill="#000000" y="-149.999993" height="1799.99992" fill-opacity="1"/><path stroke-linecap="butt" transform="matrix(-0.75, 0.000000001309, -0.000000001309, -0.75, 576.28304, 519.094207)" fill="none" stroke-linejoin="miter" d="M 0.0023861 107.500619 L 552.002434 107.50062 " stroke="#09cb6b" stroke-width="215" stroke-opacity="1" stroke-miterlimit="4"/><path stroke-linecap="butt" transform="matrix(-0.183946, -0.727093, 0.727093, -0.183946, 604.913189, 1156.314384)" fill="none" stroke-linejoin="miter" d="M 0.00198735 107.49851 L 960.090656 107.501969 " stroke="#09cb6b" stroke-width="215" stroke-opacity="1" stroke-miterlimit="4"/><path stroke-linecap="butt" transform="matrix(0.749071, -0.0373181, 0.0373181, 0.749071, 535.717139, 1033.040507)" fill="none" stroke-linejoin="miter" d="M 0.00212149 107.501134 L 1059.950467 107.501927 " stroke="#09cb6b" stroke-width="215" stroke-opacity="1" stroke-miterlimit="4"/><g transform="matrix(1, 0, 0, 1, 695, 127)"><g clip-path="url(#4b176b55b3)"><g fill="#09cb6b" fill-opacity="1"><g transform="translate(14.318976, 791.524774)"><g><path d="M -5.921875 -448.921875 L 179.65625 -448.921875 L 339.4375 0 L 161.890625 0 Z M 358.453125 -24.9375 L 274.765625 -262.5 L 335.203125 -448.921875 L 509.78125 -448.921875 Z M 358.453125 -24.9375 "/></g></g></g></g></g></svg>